<svg width="1440" height="1024" viewBox="0 0 1440 1024" fill="none" xmlns="http://www.w3.org/2000/svg">
<g clip-path="url(#clip0_343_681)">
<rect width="1440" height="1024" fill="#2B2B2B"/>
<g opacity="0.8">
<path d="M59.2879 22.5384C61.4741 20.3522 64.781 19.6219 68.4299 20.2976C72.0761 20.9728 76.0108 23.0476 79.3465 26.3832C82.6822 29.7189 84.7569 33.6537 85.4322 37.2999C86.1079 40.9488 85.3776 44.2557 83.1914 46.4419C81.0052 48.6279 77.6989 49.3577 74.0501 48.682C70.4039 48.0067 66.4692 45.932 63.1335 42.5963C59.7978 39.2606 57.723 35.3258 57.0478 31.6796C56.3722 28.031 57.1019 24.7245 59.2879 22.5384Z" stroke="#494949"/>
<path d="M35.764 -0.986615C42.4999 -7.72226 52.6076 -9.88834 63.5746 -7.85743C74.5391 -5.82697 86.309 0.395111 96.2624 10.3485C106.216 20.3018 112.437 32.0713 114.468 43.0356C116.499 54.0026 114.332 64.1103 107.597 70.8462C100.861 77.582 90.7527 79.7486 79.7856 77.7177C68.8213 75.6872 57.0517 69.4656 47.0985 59.5124C37.1451 49.5591 30.923 37.7891 28.8925 26.8246C26.8616 15.8575 29.0282 5.74923 35.764 -0.986615Z" stroke="#494949"/>
<path d="M14.5341 -26.8055C26.4539 -38.725 44.2801 -42.5576 63.5337 -39.0328C82.7849 -35.5083 103.411 -24.6319 120.827 -7.21647C138.242 10.1992 149.119 30.8258 152.644 50.0771C156.168 69.3307 152.335 87.1563 140.416 99.076C128.496 110.996 110.67 114.829 91.4161 111.305C72.1648 107.78 51.5381 96.9033 34.1225 79.4877C16.707 62.0722 5.83064 41.4459 2.30615 22.1948C-1.21869 2.94095 2.61439 -14.8858 14.5341 -26.8055Z" stroke="#494949"/>
<path d="M-10.9785 -48.3418C4.9333 -64.2535 29.2273 -68.8626 55.7257 -63.3443C82.2192 -57.827 110.85 -42.1927 135.315 -17.7283C159.779 6.73602 175.413 35.3665 180.93 61.8599C186.448 88.3584 181.839 112.652 165.927 128.564C150.016 144.476 125.722 149.085 99.2232 143.567C72.7298 138.049 44.0993 122.416 19.635 97.9513C-4.82943 73.4869 -20.4637 44.8559 -25.981 18.3624C-31.4993 -8.13603 -26.8902 -32.43 -10.9785 -48.3418Z" stroke="#494949"/>
<path d="M-33.7407 -72.6284C-13.0946 -93.2744 20.4904 -97.2151 58.2315 -86.7167C95.9556 -76.2229 137.718 -51.3253 174.552 -14.491C211.387 22.3436 236.285 64.106 246.778 101.83C257.277 139.571 253.335 173.156 232.689 193.802C212.043 214.448 178.459 218.389 140.718 207.891C102.994 197.397 61.2313 172.499 24.3968 135.664C-12.4375 98.8299 -37.3351 57.0679 -47.8289 19.3438C-58.3274 -18.3972 -54.3866 -51.9824 -33.7407 -72.6284Z" stroke="#494949"/>
<path d="M-55.753 -97.663C-30.1548 -123.261 13.0597 -126.571 62.3981 -110.999C111.71 -95.4358 166.996 -61.0465 216.54 -11.5016C266.085 38.0433 300.475 93.3286 316.038 142.641C331.61 191.979 328.3 235.194 302.702 260.792C277.104 286.39 233.889 289.7 184.551 274.128C135.239 258.565 79.954 224.175 30.4091 174.63C-19.1358 125.085 -53.5258 69.8002 -69.0892 20.4881C-84.6609 -28.8503 -81.351 -72.0647 -55.753 -97.663Z" stroke="#494949"/>
<path d="M-78.5152 -121.952C-48.1741 -152.293 5.34701 -153.922 67.5542 -131.736C129.722 -109.564 200.383 -63.6612 264.778 0.734217C329.174 65.1297 375.076 135.791 397.248 197.958C419.434 260.165 417.805 313.687 387.464 344.028C357.123 374.369 303.602 375.998 241.395 353.812C179.227 331.64 108.567 285.737 44.1713 221.341C-20.2241 156.946 -66.1275 86.2854 -88.2993 24.1178C-110.485 -38.0893 -108.856 -91.6104 -78.5152 -121.952Z" stroke="#494949"/>
<path d="M-101.277 -146.236C-83.7512 -163.762 -57.8769 -171.359 -26.0064 -170.01C5.86462 -168.661 43.6787 -158.366 84.9956 -140.175C167.626 -103.794 264.168 -35.8738 355.016 54.9736C445.863 145.821 513.784 242.364 550.165 324.994C568.356 366.311 578.651 404.125 580 435.996C581.349 467.867 573.752 493.741 556.226 511.267C538.7 528.793 512.826 536.389 480.956 535.04C449.085 533.691 411.27 523.397 369.953 505.206C287.322 468.825 190.781 400.904 99.9332 310.056C9.08586 219.209 -58.8346 122.668 -95.2158 40.0367C-113.407 -1.28033 -123.701 -39.0949 -125.05 -70.966C-126.399 -102.836 -118.803 -128.71 -101.277 -146.236Z" stroke="#494949"/>
<path d="M-131.106 -175.722C-109.54 -197.288 -78.6994 -207.599 -41.3274 -207.721C-3.95243 -207.843 39.9188 -197.772 87.4752 -178.616C182.586 -140.307 292.345 -65.6976 394.188 36.1446C496.03 137.987 570.639 247.747 608.949 342.858C628.104 390.414 638.175 434.285 638.053 471.659C637.931 509.032 627.62 539.872 606.054 561.438C584.489 583.004 553.649 593.314 516.277 593.436C478.902 593.558 435.031 583.488 387.474 564.333C292.363 526.023 182.604 451.413 80.7618 349.57C-21.0803 247.728 -95.6899 137.97 -134 42.8586C-153.155 -4.69787 -163.226 -48.5696 -163.104 -85.9446C-162.982 -123.317 -152.672 -154.156 -131.106 -175.722Z" stroke="#494949"/>
<path d="M-157.184 -208.959C-104.937 -261.206 -12.7051 -263.789 94.3818 -225.436C201.429 -187.097 323.137 -107.907 434.109 3.06565C545.082 114.038 624.272 235.746 662.611 342.793C700.964 449.88 698.38 542.112 646.134 594.359C593.887 646.606 501.654 649.19 394.567 610.837C287.52 572.498 165.813 493.307 54.8405 382.335C-56.1318 271.362 -135.323 149.655 -173.662 42.6077C-212.015 -64.4795 -209.431 -156.712 -157.184 -208.959Z" stroke="#494949"/>
<path d="M-185.512 -239.943C-124.791 -300.663 -18.7499 -304.771 103.805 -262.048C226.323 -219.337 365.169 -129.873 491.281 -3.76134C617.392 122.35 706.857 261.197 749.567 383.715C792.291 506.269 788.183 612.311 727.462 673.032C666.741 733.753 560.699 737.86 438.145 695.137C315.627 652.426 176.781 562.962 50.6689 436.85C-75.4429 310.739 -164.907 171.892 -207.618 49.3746C-250.341 -73.1801 -246.233 -179.222 -185.512 -239.943Z" stroke="#494949"/>
<path d="M-198.841 -269.591C-124.384 -344.048 -0.771272 -355.413 139.043 -313.39C278.835 -271.373 434.691 -176.014 573.452 -37.2522C712.214 101.509 807.572 257.365 849.589 397.156C891.613 536.971 880.247 660.583 805.79 735.04C731.333 809.497 607.72 820.863 467.906 778.839C328.115 736.823 172.259 641.464 33.4975 502.703C-105.264 363.941 -200.623 208.085 -242.64 68.2931C-284.664 -71.521 -273.298 -195.133 -198.841 -269.591Z" stroke="#494949"/>
<path d="M-223.417 -288.14C-138.226 -373.66 3.48237 -386.91 163.876 -338.992C324.248 -291.08 503.167 -182.045 662.599 -23.226C822.03 135.593 931.753 314.092 980.282 474.278C1028.82 634.487 1016.11 776.244 930.92 861.764C845.73 947.283 704.022 960.533 543.629 912.615C383.257 864.703 204.337 755.669 44.905 596.849C-114.527 438.03 -224.248 259.531 -272.776 99.3448C-321.312 -60.8636 -308.607 -202.621 -223.417 -288.14Z" stroke="#494949"/>
<path d="M-243.014 -312.008C-145.712 -410.062 14.8943 -427.026 196.045 -374.992C377.175 -322.964 578.72 -201.978 757.723 -24.3481C936.725 153.282 1059.26 353.89 1112.68 534.614C1166.1 715.359 1150.38 876.091 1053.07 974.145C955.772 1072.2 795.166 1089.16 614.015 1037.13C432.885 985.101 231.34 864.116 52.338 686.486C-126.665 508.856 -249.198 308.248 -302.618 127.523C-356.045 -53.2215 -340.317 -213.954 -243.014 -312.008Z" stroke="#494949"/>
<path d="M-265.983 -332.647C-157.514 -442.375 21.4019 -462.076 223.127 -405.033C424.833 -347.995 649.22 -214.252 848.454 -17.3039C1047.69 179.644 1184.01 402.472 1243.38 603.506C1302.74 804.559 1285.11 983.692 1176.64 1093.42C1068.17 1203.15 889.256 1222.85 687.531 1165.8C485.825 1108.77 261.438 975.024 62.2035 778.076C-137.031 581.128 -273.355 358.3 -332.718 157.266C-392.086 -43.7874 -374.452 -222.919 -265.983 -332.647Z" stroke="#494949"/>
<path d="M-287.148 -355.275C-167.02 -477.267 27.8808 -503.016 246.008 -445.86C464.121 -388.708 705.349 -248.683 917.97 -39.3095C1130.59 170.064 1274.31 409.109 1334.81 626.315C1395.32 843.538 1372.57 1038.81 1252.45 1160.8C1132.32 1282.79 937.418 1308.54 719.291 1251.39C501.178 1194.23 259.95 1054.21 47.3291 844.836C-165.292 635.463 -309.013 396.418 -369.515 179.211C-430.021 -38.0109 -407.275 -233.284 -287.148 -355.275Z" stroke="#494949"/>
<path d="M-312.681 -373.62C-182.117 -506.72 29.1559 -536.055 265.316 -475.721C501.463 -415.391 762.388 -265.422 992.095 -40.0923C1221.8 185.237 1376.76 443.229 1441.63 678.171C1506.49 913.128 1481.23 1124.93 1350.66 1258.03C1220.1 1391.13 1008.83 1420.46 772.666 1360.13C536.519 1299.8 275.594 1149.83 45.8868 924.498C-183.82 699.168 -338.781 441.176 -403.643 206.234C-468.509 -28.7218 -443.244 -240.52 -312.681 -373.62Z" stroke="#494949"/>
<path d="M-312.858 -418.053C-164.861 -569.507 69.4213 -608.728 328.671 -549.57C587.911 -490.415 872.029 -332.9 1119.56 -91.0236C1367.08 150.852 1531.11 431.259 1596.24 689.065C1661.36 946.88 1627.56 1182 1479.56 1333.46C1331.57 1484.91 1097.29 1524.13 838.036 1464.98C578.796 1405.82 294.677 1248.31 47.1511 1006.43C-200.375 764.553 -364.407 484.147 -429.531 226.342C-494.658 -31.4735 -460.855 -266.599 -312.858 -418.053Z" stroke="#494949"/>
<path d="M-328.197 -447.249C-166.97 -612.878 86.0306 -658.738 364.842 -598.868C643.645 -538.998 948.179 -373.412 1212.33 -116.279C1476.49 140.855 1650.21 440.818 1717.57 717.908C1784.93 995.005 1745.9 1249.15 1584.67 1414.78C1423.45 1580.41 1170.44 1626.27 891.633 1566.4C612.829 1506.53 308.296 1340.94 44.1419 1083.81C-220.012 826.676 -393.74 526.712 -461.096 249.622C-528.454 -27.4756 -489.424 -281.62 -328.197 -447.249Z" stroke="#494949"/>
<path d="M-5.52539 242.725L190.475 158.725L-5.52539 298.725L190.475 242.725L34.4746 354.725H126.475L66.4746 402.725" stroke="#E63946" stroke-width="1.5"/>
<path d="M1213.47 957.725L1409.47 873.725L1213.47 1013.72L1409.47 957.725L1253.47 1069.72H1345.47L1285.47 1117.72" stroke="#E63946" stroke-width="1.5"/>
<path d="M1144.47 -0.275391L1138.47 24.7246L1116.47 33.7246L1138.47 41.7246L1144.47 61.7246L1154.47 41.7246L1178.47 33.7246L1154.47 24.7246L1144.47 -0.275391Z" stroke="#E63946" stroke-width="1.5"/>
<path d="M84.4746 915.725L78.4746 940.725L56.4746 949.725L78.4746 957.725L84.4746 977.725L94.4746 957.725L118.475 949.725L94.4746 940.725L84.4746 915.725Z" stroke="#E63946" stroke-width="1.5"/>
<path d="M1206.47 50.7246L1200.47 75.7246L1178.47 84.7246L1200.47 92.7246L1206.47 112.725L1216.47 92.7246L1240.47 84.7246L1216.47 75.7246L1206.47 50.7246Z" stroke="#E63946" stroke-width="1.5"/>
<path d="M146.475 966.725L140.475 991.725L118.475 1000.72L140.475 1008.72L146.475 1028.72L156.475 1008.72L180.475 1000.72L156.475 991.725L146.475 966.725Z" stroke="#E63946" stroke-width="1.5"/>
<circle cx="429.475" cy="81.7246" r="5" fill="#E63946"/>
<circle cx="558.475" cy="1.72461" r="5" fill="#E63946"/>
<path d="M439.475 73.7246L451.475 66.7246" stroke="#E63946" stroke-width="1.5"/>
<path d="M455.475 63.7246L467.475 56.7246" stroke="#E63946" stroke-width="1.5"/>
<path d="M471.475 53.7246L483.475 46.7246" stroke="#E63946" stroke-width="1.5"/>
<path d="M487.475 43.7246L499.475 36.7246" stroke="#E63946" stroke-width="1.5"/>
<path d="M503.475 33.7246L515.475 26.7246" stroke="#E63946" stroke-width="1.5"/>
<path d="M519.475 23.7246L531.475 16.7246" stroke="#E63946" stroke-width="1.5"/>
<path d="M535.475 13.7246L547.475 6.72461" stroke="#E63946" stroke-width="1.5"/>
<circle cx="846.475" cy="1013.72" r="5" fill="#E63946"/>
<circle cx="975.475" cy="933.725" r="5" fill="#E63946"/>
<path d="M856.475 1005.72L868.475 998.725" stroke="#E63946" stroke-width="1.5"/>
<path d="M872.475 995.725L884.475 988.725" stroke="#E63946" stroke-width="1.5"/>
<path d="M888.475 985.725L900.475 978.725" stroke="#E63946" stroke-width="1.5"/>
<path d="M904.475 975.725L916.475 968.725" stroke="#E63946" stroke-width="1.5"/>
<path d="M920.475 965.725L932.475 958.725" stroke="#E63946" stroke-width="1.5"/>
<path d="M936.475 955.725L948.475 948.725" stroke="#E63946" stroke-width="1.5"/>
<path d="M952.475 945.725L964.475 938.725" stroke="#E63946" stroke-width="1.5"/>
</g>
</g>
<defs>
<clipPath id="clip0_343_681">
<rect width="1440" height="1024" fill="white"/>
</clipPath>
</defs>
</svg>
