<svg width="45" height="43" viewBox="0 0 45 43" fill="none" xmlns="http://www.w3.org/2000/svg">
<path fill-rule="evenodd" clip-rule="evenodd" d="M43.5382 21.989C43.5382 20.4645 43.3969 18.9986 43.1343 17.5913H22.2134V25.9079H34.1682C33.6533 28.5954 32.0882 30.8724 29.7356 32.397V37.7915H36.9146C41.1149 34.0486 43.5382 28.5368 43.5382 21.989Z" fill="#4285F4"/>
<path fill-rule="evenodd" clip-rule="evenodd" d="M22.213 42.9995C28.2106 42.9995 33.2389 41.0742 36.9142 37.7906L29.7352 32.3961C27.7461 33.6861 25.2017 34.4483 22.213 34.4483C16.4274 34.4483 11.5304 30.6663 9.78359 25.5845H2.3623V31.1549C6.01742 38.1815 13.5296 42.9995 22.213 42.9995Z" fill="#34A853"/>
<path fill-rule="evenodd" clip-rule="evenodd" d="M9.78398 25.5852C9.33972 24.2952 9.08729 22.9172 9.08729 21.5002C9.08729 20.0831 9.33972 18.7052 9.78398 17.4152V11.8447H2.3627C0.858244 14.7472 0 18.0309 0 21.5002C0 24.9695 0.858244 28.2531 2.3627 31.1556L9.78398 25.5852Z" fill="#FBBC05"/>
<path fill-rule="evenodd" clip-rule="evenodd" d="M22.213 8.55114C25.4743 8.55114 28.4024 9.63591 30.7046 11.7664L37.0758 5.59977C33.2288 2.13045 28.2005 0 22.213 0C13.5296 0 6.01742 4.81795 2.3623 11.8445L9.78359 17.415C11.5304 12.3332 16.4274 8.55114 22.213 8.55114Z" fill="#EA4335"/>
</svg>
