<svg width="1193" height="744" viewBox="0 0 1193 744" fill="none" xmlns="http://www.w3.org/2000/svg">
<g clip-path="url(#clip0_2013_179)">
<path d="M0 70C0 31.3401 31.3401 0 70 0H1123C1161.66 0 1193 31.3401 1193 70V674C1193 712.66 1161.66 744 1123 744H70C31.34 744 0 712.66 0 674V70Z" fill="#201F1F"/>
<g filter="url(#filter0_f_2013_179)">
<path fill-rule="evenodd" clip-rule="evenodd" d="M601.355 -183.226C714.178 -186.474 829.703 -179.347 931.023 -164.764C1031.71 -150.272 1127.33 -129.19 1177.54 -100.296C1226.15 -72.3276 1170.16 -37.7963 1203.41 -8.04034C1240.69 25.3272 1428.27 49.9475 1381.59 82.3302C1330.2 117.981 1114.69 100.22 1011.59 125.029C935.615 143.31 976.073 188.7 887.142 201.305C798.58 213.857 699.342 179.527 601.355 183.172C482.895 187.579 393.368 232.235 277.436 223.986C171.019 216.414 158.593 172.584 94.4768 147.105C33.4561 122.856 -67.7003 105.715 -93.1346 76.7247C-118.618 47.6784 -53.37 18.9525 -44.1292 -10.8797C-33.4017 -45.5116 -105.705 -85.7608 -34.107 -113.836C36.6246 -141.571 190.085 -134.421 302.131 -146.656C404.745 -157.861 492.089 -180.08 601.355 -183.226Z" fill="#E63946" fill-opacity="0.3"/>
</g>
<g filter="url(#filter1_f_2013_179)">
<path fill-rule="evenodd" clip-rule="evenodd" d="M640.645 952.226C527.822 955.474 412.297 948.347 310.977 933.764C210.291 919.272 114.675 898.19 64.4568 869.296C15.8473 841.328 71.8351 806.796 38.5896 777.04C1.30891 743.673 -186.267 719.052 -139.587 686.67C-88.1961 651.019 127.309 668.78 230.411 643.971C306.385 625.69 265.927 580.3 354.858 567.695C443.42 555.143 542.658 589.473 640.645 585.828C759.105 581.421 848.632 536.765 964.564 545.014C1070.98 552.586 1083.41 596.416 1147.52 621.895C1208.54 646.144 1309.7 663.285 1335.13 692.275C1360.62 721.322 1295.37 750.047 1286.13 779.88C1275.4 814.512 1347.7 854.761 1276.11 882.836C1205.38 910.571 1051.91 903.421 939.869 915.656C837.255 926.861 749.911 949.08 640.645 952.226Z" fill="#E63946" fill-opacity="0.3"/>
</g>
</g>
<defs>
<filter id="filter0_f_2013_179" x="-199" y="-284" width="1688" height="609" filterUnits="userSpaceOnUse" color-interpolation-filters="sRGB">
<feFlood flood-opacity="0" result="BackgroundImageFix"/>
<feBlend mode="normal" in="SourceGraphic" in2="BackgroundImageFix" result="shape"/>
<feGaussianBlur stdDeviation="50" result="effect1_foregroundBlur_2013_179"/>
</filter>
<filter id="filter1_f_2013_179" x="-247" y="444" width="1688" height="609" filterUnits="userSpaceOnUse" color-interpolation-filters="sRGB">
<feFlood flood-opacity="0" result="BackgroundImageFix"/>
<feBlend mode="normal" in="SourceGraphic" in2="BackgroundImageFix" result="shape"/>
<feGaussianBlur stdDeviation="50" result="effect1_foregroundBlur_2013_179"/>
</filter>
<clipPath id="clip0_2013_179">
<path d="M0 70C0 31.3401 31.3401 0 70 0H1123C1161.66 0 1193 31.3401 1193 70V674C1193 712.66 1161.66 744 1123 744H70C31.34 744 0 712.66 0 674V70Z" fill="white"/>
</clipPath>
</defs>
</svg>
