<svg width="335" height="568" viewBox="0 0 335 568" fill="none" xmlns="http://www.w3.org/2000/svg">
<path d="M111.758 544.734L111.768 567.984H107.648L108.338 563.364C109.418 556.134 108.118 502.604 106.318 480.484C104.428 457.324 98.8681 401.754 98.3881 401.274C98.1181 401.004 78.2882 401.954 33.2582 404.404C28.2982 404.674 23.6782 404.544 22.9882 404.124C21.7782 403.374 20.9682 391.984 16.7782 316.484C16.2082 306.034 15.0682 286.004 14.2582 271.984C13.4582 257.964 11.2082 218.134 9.26815 183.484C7.32815 148.834 5.08815 109.004 4.28815 94.9844C3.48815 80.9544 2.36815 60.4844 1.79815 49.4844C1.22815 38.4844 0.518152 26.9244 0.228152 23.7944C-0.251848 18.7844 -0.0718498 17.9744 1.71815 17.0144C4.55815 15.4944 19.9182 14.2744 58.7682 12.4944C125.788 9.42441 261.328 2.63441 301.408 0.334414C311.778 -0.265586 312.578 -0.175586 313.098 1.58441C314.508 6.38441 314.548 7.09441 319.788 109.484C322.608 164.624 325.988 225.714 330.878 310.134C333.158 349.544 334.728 383.374 334.368 385.324C333.748 388.604 333.378 388.914 329.488 389.404C327.168 389.704 297.638 391.264 263.878 392.884C216.448 395.154 202.288 396.134 201.638 397.154C200.108 399.564 200.738 404.354 203.978 414.984C207.088 425.164 207.178 426.044 207.198 443.984C207.208 461.574 207.068 462.864 204.478 470.274C198.998 485.954 193.498 494.554 186.768 497.984C184.698 499.034 182.738 500.634 182.388 501.524C182.048 502.414 181.768 517.734 181.768 535.564V567.984H177.768V500.194L181.228 497.334C183.138 495.764 186.098 493.414 187.808 492.094C197.128 484.944 203.768 464.494 203.768 442.944C203.768 431.204 202.918 425.754 199.178 413.684C195.948 403.244 196.068 398.734 199.728 392.364C205.638 382.054 223.738 368.584 237.198 364.474C245.788 361.854 249.188 359.424 248.598 356.334C247.798 352.174 239.568 350.864 230.108 353.384C218.588 356.444 210.868 361.014 195.228 374.014C189.958 378.394 185.308 381.984 184.908 381.984C183.238 381.984 181.768 379.394 181.768 376.454C181.768 372.034 186.008 366.114 200.178 350.774C211.948 338.034 217.368 333.314 235.468 320.064C246.238 312.184 248.958 307.174 244.768 302.984C235.798 294.014 201.448 317.924 182.968 345.984C173.428 360.474 172.078 361.984 168.668 361.984C162.788 361.984 161.268 356.884 164.808 349.074C168.528 340.884 176.518 331.554 196.998 311.484C208.218 300.484 218.838 289.504 220.588 287.084C226.088 279.484 224.308 275.534 215.408 275.584C202.598 275.664 186.538 288.814 166.568 315.584C163.648 319.484 157.128 328.364 152.068 335.304C142.408 348.554 140.208 350.224 134.928 348.374C128.208 346.004 126.058 331.754 130.578 319.484C134.968 307.554 146.128 294.524 159.948 285.204C168.428 279.474 173.608 274.484 174.418 271.254C175.368 267.464 173.998 264.324 170.818 263.004C164.448 260.364 151.988 265.964 138.388 277.554C130.258 284.484 108.318 307.494 102.428 315.274C93.4282 327.144 91.1581 338.114 94.0982 355.484C94.9381 360.434 97.2182 373.794 99.1782 385.164C107.408 432.934 111.728 487.834 111.758 544.734ZM25.3382 393.154L25.9582 400.824L31.1182 400.374C33.9482 400.134 49.9582 399.274 66.6782 398.464C83.4082 397.654 97.3082 396.784 97.5682 396.524C98.1282 395.954 96.8281 388.914 92.2781 367.984C90.4281 359.464 88.6282 350.374 88.2882 347.784C86.8382 336.894 91.6882 324.024 102.978 308.784C122.298 282.714 150.348 260.124 165.648 258.314C169.668 257.834 171.278 258.134 174.118 259.894C178.278 262.464 179.368 266.044 177.788 271.914C176.278 277.514 171.928 282.154 161.768 288.984C139.028 304.274 126.908 327.764 134.348 342.144C137.368 347.984 139.958 346.004 150.258 329.984C160.568 313.964 168.418 304.454 182.388 291.104C196.728 277.394 205.078 272.314 214.818 271.334C219.448 270.874 220.788 271.154 223.758 273.174C228.558 276.444 229.508 279.604 227.188 284.554C226.088 286.914 215.738 298.264 201.278 312.984C172.568 342.194 165.768 350.214 165.768 354.844C165.768 356.824 168.258 358.414 169.838 357.444C170.318 357.144 173.738 352.304 177.438 346.694C182.158 339.524 188.048 332.594 197.218 323.424C210.448 310.184 218.638 303.814 228.058 299.424C241.188 293.314 253.158 299.064 249.908 309.914C248.518 314.564 242.798 320.194 229.268 330.254C213.988 341.604 184.798 372.344 187.098 374.654C187.448 374.994 189.648 373.504 191.998 371.344C202.858 361.344 220.328 350.994 229.568 349.084C244.418 346.014 253.678 349.764 252.068 358.204C251.298 362.224 247.968 364.664 238.728 367.984C234.068 369.654 227.298 373.034 223.678 375.504C217.238 379.874 205.558 389.554 204.978 390.984C204.828 391.374 206.848 391.534 209.478 391.334C213.248 391.054 298.748 386.894 324.768 385.734L330.268 385.484L329.968 376.484C329.618 366.364 326.478 305.164 324.238 264.984C322.618 236.064 321.728 220.434 315.828 117.984C313.658 80.3044 311.348 39.5844 310.688 27.4844C310.038 15.3844 309.348 5.30441 309.158 5.09441C308.528 4.37441 229.658 8.07442 66.7682 16.4744C40.0882 17.8544 15.2282 18.9844 11.5182 18.9844H4.76815V26.2544C4.76815 30.2444 5.21815 40.4844 5.75815 49.0044C6.29815 57.5144 7.19816 72.8044 7.74816 82.9844C8.94816 104.964 13.7982 191.084 17.2582 251.984C18.6182 275.904 20.8582 315.734 22.2282 340.484C23.5982 365.234 24.9982 388.934 25.3382 393.154ZM93.7682 183.414L91.3782 183.534C36.7182 186.194 34.2082 186.314 33.4082 185.204C33.3582 185.144 33.3182 185.064 33.2682 184.984C32.9282 184.434 31.1381 156.874 29.2781 123.734C27.4181 90.5944 25.6482 58.9844 25.3382 53.4844C25.0282 47.9844 25.1482 42.9044 25.5982 42.2044C26.1882 41.2944 32.2982 40.6344 46.8482 39.9044C58.0782 39.3444 83.6982 38.0444 103.768 37.0144C131.718 35.5744 140.538 35.4044 141.418 36.3044C142.118 37.0344 143.018 45.4144 143.728 57.9844C144.358 69.2644 145.978 96.7044 147.318 118.984C150.108 165.274 150.398 179.854 148.518 180.434C147.828 180.644 123.198 181.984 93.7682 183.414ZM37.7082 180.794C37.7482 180.964 39.6282 180.964 41.8881 180.794L46.0182 180.484L48.6681 172.954C53.7281 158.584 60.2481 150.734 73.0281 143.584L79.7682 139.814V134.744C79.7682 130.064 79.4582 129.414 75.7382 126.224C70.7682 121.964 68.0382 116.784 66.2282 108.144C65.4682 104.494 64.3981 101.364 63.8582 101.184C63.3082 100.994 61.7182 99.9444 60.3182 98.8444C57.3582 96.5144 56.9682 92.5744 59.3582 89.1644C60.6482 87.3144 60.8082 85.3644 60.2481 78.5444C59.3782 68.1644 60.5181 64.3444 65.9481 59.4344C74.4181 51.7844 79.4682 50.7844 100.318 52.6044C111.358 53.5744 114.578 54.9844 117.788 60.2544C120.038 63.9544 122.768 75.2044 122.768 80.7744C122.768 83.4044 123.418 85.2644 124.768 86.4844C126.158 87.7444 126.768 89.5644 126.768 92.4744C126.768 96.0544 126.208 97.1844 122.898 100.244C120.278 102.664 118.788 105.064 118.308 107.614C117.348 112.724 114.398 118.274 110.128 123.004C106.888 126.594 106.638 127.284 107.278 131.064C108.068 135.714 110.758 138.984 113.808 138.984C119.578 138.984 131.148 149.194 139.668 161.814C142.028 165.294 144.148 167.934 144.408 167.684C144.658 167.434 144.178 155.584 143.338 141.354C142.498 127.124 141.138 103.334 140.298 88.4844C139.468 73.6344 138.498 56.8744 138.158 51.2344L137.528 40.9844L131.398 40.9944C123.768 41.0144 30.6081 45.7944 30.2481 46.1944C30.0481 46.4144 37.4082 179.104 37.7082 180.794ZM204.268 114.484C200.248 114.634 196.588 114.774 193.248 114.894C161.688 116.074 158.888 116.174 158.268 115.064C158.138 114.834 158.108 114.564 157.938 114.234C157.438 113.274 156.788 106.544 156.478 99.2944C156.028 88.6744 156.188 85.8744 157.328 84.9344C158.278 84.1444 171.578 83.3244 198.598 82.3744C220.528 81.6144 250.558 80.3844 265.338 79.6344C280.118 78.8944 292.958 78.4844 293.868 78.7244C296.068 79.2944 296.748 83.8144 296.758 98.1244C296.768 108.044 296.518 109.864 295.118 110.404C293.418 111.054 275.638 111.854 204.268 114.484ZM230.268 67.9244C197.268 69.0844 167.268 70.2844 163.598 70.5944C157.798 71.0944 156.818 70.9344 155.988 69.3244C155.468 68.3144 154.758 61.3444 154.418 53.8344C153.848 41.4644 153.958 40.1244 155.528 39.4944C156.488 39.1144 163.348 38.4244 170.768 37.9644C191.008 36.7144 292.648 33.5244 293.248 34.1244C293.528 34.4144 294.058 41.4544 294.418 49.7644L295.078 64.8644L292.668 65.3544C291.348 65.6144 263.268 66.7744 230.268 67.9244ZM161.348 110.814C161.678 111.874 164.008 112.024 172.518 111.524C185.038 110.784 282.238 106.984 288.518 106.984H292.768L292.758 100.234C292.758 96.5244 292.458 91.0744 292.108 88.1244L291.468 82.7644L279.368 83.3944C272.708 83.7344 247.918 84.6844 224.268 85.4844C174.078 87.1944 162.708 87.8644 161.048 89.1944C160.178 89.9044 159.988 92.8744 160.388 99.8344C160.688 105.144 161.128 110.084 161.348 110.814ZM159.188 65.4844C159.398 66.1444 182.028 65.5844 224.888 63.8544C260.848 62.4144 290.448 61.1744 290.668 61.1044C291.188 60.9444 289.848 38.7244 289.278 38.1644C288.838 37.7144 182.988 41.5544 167.268 42.5944L158.268 43.1844L158.568 53.8344C158.728 59.6944 159.008 64.9344 159.188 65.4844ZM70.7282 109.364C71.8782 112.394 74.0182 112.334 78.6482 109.134C85.1382 104.624 86.5482 103.994 90.0882 103.994C94.4382 103.984 97.1181 105.154 100.948 108.734C102.958 110.594 104.278 111.074 106.168 110.594C109.668 109.724 113.698 102.464 115.038 94.6144C117.108 82.5444 111.628 74.7544 102.358 76.5644C100.108 76.9944 93.4982 77.3844 87.6782 77.4244C75.3782 77.4944 74.7082 77.8344 71.0682 85.9444C68.8882 90.7944 68.6481 92.4344 69.1282 99.0544C69.4282 103.214 70.1482 107.854 70.7282 109.364ZM68.8081 346.444C66.4481 348.714 64.7082 349.394 60.5382 349.664C51.6282 350.264 46.7081 345.574 46.3081 336.124C46.1781 332.924 45.5181 331.194 43.9481 329.924C41.0281 327.564 41.2082 326.314 45.2982 320.734C48.9282 315.794 51.5482 314.814 53.8182 317.534C57.2782 321.704 58.6682 321.424 64.1282 315.404L69.3382 309.684L74.5581 310.934C77.4281 311.624 80.0382 312.614 80.3682 313.144C80.6982 313.674 78.9782 316.674 76.5382 319.794C72.7582 324.654 71.3982 326.334 71.3482 328.044C71.3182 328.994 71.6982 329.954 72.2981 331.464C72.3482 331.594 72.3981 331.724 72.4481 331.854C74.4981 337.074 73.2181 342.224 68.8081 346.444ZM57.1282 248.604C47.6782 252.554 38.7782 246.334 38.7682 235.754C38.7682 231.824 38.3482 230.754 36.2682 229.394C34.8882 228.494 33.7682 227.174 33.7682 226.454C33.7682 224.834 41.4782 214.984 42.7582 214.984C43.2782 214.984 45.3482 216.424 47.3582 218.194L51.0082 221.404L54.1381 217.484C55.8582 215.324 58.1782 212.484 59.2982 211.174L61.3282 208.804L67.0481 210.464C70.1982 211.374 72.7682 212.594 72.7682 213.164C72.7682 213.734 70.5282 217.014 67.7981 220.454L62.8182 226.704L64.4181 230.774C67.2481 237.984 64.0982 245.694 57.1282 248.604ZM62.7282 299.504C58.7982 301.534 53.8882 301.354 50.0682 299.024C45.6182 296.314 43.5482 292.724 43.3182 287.314C43.1782 283.924 42.5381 282.214 40.9481 280.924C39.7481 279.954 38.7782 278.564 38.7882 277.824C38.8382 275.604 45.6681 266.984 47.3881 266.984C48.2581 266.984 50.3181 268.104 51.9481 269.484C53.5881 270.864 55.2681 271.984 55.6981 271.984C56.1181 271.984 58.4482 269.474 60.8682 266.414C64.9682 261.214 65.5081 260.864 68.7682 261.304C70.6982 261.564 73.5281 262.274 75.0581 262.874C77.5681 263.854 77.7282 264.184 76.6482 266.224C75.9882 267.464 73.6582 270.604 71.4782 273.194L67.5182 277.904L69.2181 282.144C72.0081 289.114 69.4082 296.044 62.7282 299.504ZM147.268 236.474C127.468 237.844 108.498 239.224 105.118 239.544C99.1382 240.104 96.2581 239.014 98.4081 236.994C99.3382 236.124 124.608 234.224 217.268 228.054C220.768 227.824 224.118 227.604 227.328 227.384C295.838 222.834 298.488 222.654 299.118 223.694C299.168 223.784 299.208 223.884 299.278 223.994C300.588 226.124 297.958 226.674 282.948 227.374C269.598 228.004 233.388 230.374 197.268 232.974C189.568 233.534 167.068 235.104 147.268 236.474ZM89.6282 157.314C92.5781 159.334 95.3482 160.984 95.7981 160.984C96.9882 160.984 111.908 149.664 114.628 146.704L116.978 144.124L112.628 142.944C110.228 142.294 107.718 141.604 107.038 141.414C106.368 141.224 105.018 138.344 104.038 135.014C102.688 130.384 101.918 129.114 100.768 129.604C99.9482 129.954 95.7782 130.464 91.5182 130.734L83.7682 131.244L83.7481 136.364C83.7381 142.394 83.3281 143.164 78.9481 145.404L75.6381 147.104L79.9481 150.374C82.3281 152.174 86.6782 155.304 89.6282 157.314ZM219.798 167.534C199.738 168.884 183.188 169.984 183.018 169.984C182.378 169.984 181.538 166.874 182.038 166.374C182.618 165.804 239.978 161.794 275.158 159.884C292.458 158.934 298.108 158.924 298.998 159.814C299.728 160.544 299.808 161.304 299.218 161.844C298.698 162.314 288.818 163.234 277.268 163.894C265.718 164.554 239.858 166.194 219.798 167.534ZM210.768 137.434C181.648 139.284 180.088 139.314 179.198 137.874C178.318 136.444 180.568 135.024 183.768 134.984C185.148 134.974 208.538 133.624 235.768 131.984C295.418 128.394 297.038 128.364 296.578 130.734C296.278 132.314 293.208 132.654 265.758 134.174C248.988 135.104 224.248 136.574 210.768 137.434ZM47.2682 233.204C48.9182 234.704 50.7182 235.934 51.2682 235.944C51.8182 235.954 54.2482 232.764 56.6582 228.854C59.0782 224.934 62.3481 220.244 63.9481 218.434C66.8081 215.174 66.8181 215.134 64.6681 214.454C62.9581 213.904 61.9382 214.474 59.8782 217.124C58.4482 218.964 56.0582 221.834 54.5782 223.484C53.3982 224.794 52.7481 225.574 51.9682 225.734C50.9081 225.934 49.6281 224.974 46.4481 222.594C46.2881 222.474 46.1181 222.354 45.9481 222.224L42.9181 219.954L40.7582 223.004L38.5882 226.054L41.4181 228.264C42.9881 229.484 45.6082 231.704 47.2682 233.204ZM176.318 171.534C171.378 176.464 162.768 173.184 162.768 166.364C162.768 159.504 170.808 155.524 176.548 159.544C179.758 161.794 179.638 168.214 176.318 171.534ZM49.8682 282.824C53.2182 285.664 56.3782 287.724 56.8782 287.414C57.3882 287.104 58.6382 285.194 59.6782 283.164C60.7082 281.144 63.6682 276.614 66.2582 273.104C69.7582 268.354 70.6281 266.514 69.6681 265.924C67.6281 264.664 65.2082 266.544 61.8682 271.964C58.3382 277.714 56.3781 278.214 51.9481 274.484C50.3181 273.104 48.5382 271.984 47.9882 271.984C47.1382 271.984 43.7682 276.214 43.7682 277.294C43.7682 277.504 46.5082 279.994 49.8682 282.824ZM52.9481 331.814C56.3481 334.604 59.5082 336.644 59.9682 336.364C60.4182 336.084 61.6382 334.194 62.6782 332.164C63.7082 330.144 66.6682 325.614 69.2582 322.104C72.8882 317.174 73.6482 315.524 72.6182 314.864C70.5182 313.534 70.4282 313.604 65.2282 320.484C62.5282 324.064 59.8282 326.984 59.2282 326.984C58.6282 326.984 56.8482 325.634 55.2682 323.984C53.6882 322.334 51.9882 320.984 51.4882 320.984C50.5482 320.984 46.8582 325.024 46.7982 326.114C46.7782 326.464 49.5481 329.034 52.9481 331.814ZM174.188 142.874C170.568 145.714 166.278 145.584 163.218 142.534C156.448 135.754 165.908 124.984 173.608 130.704C177.568 133.654 177.868 139.974 174.188 142.874ZM48.0982 244.524C52.2782 246.344 52.7082 246.314 56.5382 243.984C60.4482 241.594 62.2582 238.074 61.3782 234.554C60.4882 231.014 59.6981 231.344 56.5581 236.514C53.3281 241.834 51.5582 242.084 46.4981 237.914C42.9781 235.014 42.7682 234.964 42.7682 236.974C42.7682 240.354 44.6582 243.034 48.0982 244.524ZM55.2682 344.834C61.9582 348.494 70.1881 342.734 68.9882 335.234C68.4582 331.894 67.0581 332.484 64.7481 337.034C63.6081 339.264 61.9981 341.344 61.1681 341.664C60.3181 341.984 57.7082 340.844 55.2082 339.054L50.7682 335.864V338.234C50.7682 340.924 52.3382 343.224 55.2682 344.834ZM51.5281 295.464C55.1381 297.494 60.5182 296.684 63.5281 293.674C65.4381 291.764 65.8382 290.454 65.5882 286.894L65.2682 282.484L62.2682 287.194C60.6182 289.784 58.6582 292.144 57.9082 292.454C57.1682 292.754 54.6982 291.634 52.4282 289.964C50.1282 288.274 48.1282 287.404 47.9282 287.994C47.1582 290.324 48.9282 294.014 51.5281 295.464ZM167.848 168.584C169.738 170.854 173.088 169.874 174.188 166.724C175.508 162.974 173.778 161.244 170.028 162.564C166.948 163.644 165.978 166.324 167.848 168.584ZM166.008 139.824C166.698 140.514 168.378 140.934 169.758 140.774C171.788 140.544 172.268 139.934 172.268 137.594C172.268 133.574 169.538 131.984 166.828 134.434C164.468 136.564 164.238 138.054 166.008 139.824ZM88.1782 118.834C89.1982 120.484 93.2982 120.254 94.7882 118.464C96.2182 116.734 96.0781 116.484 93.2181 115.604C90.7881 114.854 87.1582 117.184 88.1782 118.834ZM119.768 92.9844C119.768 97.4544 120.908 98.1644 122.498 94.6744C123.178 93.1844 123.218 91.7544 122.608 90.6744C121.008 87.7944 119.768 88.8044 119.768 92.9844ZM62.3282 95.0744C63.4182 96.8344 64.7682 95.9544 64.7682 93.4844C64.7682 92.1044 64.3682 90.9844 63.8782 90.9844C62.7082 90.9844 61.5982 93.9044 62.3282 95.0744Z" fill="#E63946"/>
</svg>
